<svg xmlns="http://www.w3.org/2000/svg" width="16" height="16" viewBox="0 0 16 16">
	<path fill="none" stroke="var(--vscode-ctp-red)" stroke-linecap="round" stroke-linejoin="round" d="M2.5,11.5 L11.5,11.5 C12.0522847,11.5 12.5,11.9477153 12.5,12.5 C12.5,13.0522847 12.0522847,13.5 11.5,13.5 L2.5,13.5 C1.94771525,13.5 1.5,13.0522847 1.5,12.5 C1.5,11.9477153 1.94771525,11.5 2.5,11.5 Z" />
	<path fill="none" stroke="var(--vscode-ctp-yellow)" stroke-linecap="round" stroke-linejoin="round" d="M3.3138158,8.91890604 L12.3138158,8.91890604 C12.8661006,8.91890604 13.3138158,9.36662129 13.3138158,9.91890604 C13.3138158,10.4711908 12.8661006,10.918906 12.3138158,10.918906 L3.3138158,10.918906 C2.76153105,10.918906 2.3138158,10.4711908 2.3138158,9.91890604 C2.3138158,9.36662129 2.76153105,8.91890604 3.3138158,8.91890604 Z" transform="rotate(35 7.814 9.919)" />
	<path fill="none" stroke="var(--vscode-ctp-green)" stroke-linecap="round" stroke-linejoin="round" d="M5.46090936,7.27138321 L14.4609094,7.27138321 C15.0131941,7.27138321 15.4609094,7.71909846 15.4609094,8.27138321 C15.4609094,8.82366796 15.0131941,9.27138321 14.4609094,9.27138321 L5.46090936,9.27138321 C4.90862461,9.27138321 4.46090936,8.82366796 4.46090936,8.27138321 C4.46090936,7.71909846 4.90862461,7.27138321 5.46090936,7.27138321 Z" transform="rotate(70 9.96 8.271)" />
	<path fill="none" stroke="var(--vscode-ctp-blue)" stroke-linecap="round" stroke-linejoin="round" d="M8.1646857,7.15333378 L17.1646857,7.15333378 C17.7169705,7.15333378 18.1646857,7.60104903 18.1646857,8.15333378 C18.1646857,8.70561853 17.7169705,9.15333378 17.1646857,9.15333378 L8.1646857,9.15333378 C7.61240095,9.15333378 7.1646857,8.70561853 7.1646857,8.15333378 C7.1646857,7.60104903 7.61240095,7.15333378 8.1646857,7.15333378 Z" transform="rotate(105 12.665 8.153)" />
</svg>
