<svg xmlns="http://www.w3.org/2000/svg" width="16" height="16" viewBox="0 0 16 16">
	<path fill="none" stroke="var(--vscode-ctp-overlay1)" stroke-linecap="square" stroke-linejoin="round" d="M12.5,14.5 L12.5,10.5 L9.5,9.5 L9.5,11 L10.5,14.5 L12.5,14.5 Z M9.5,1.5 L9.5,5.5 L12.5,4.5 L12.5,1.5 L9.5,1.5 Z M9.5,7.5 L12.5,6.75 L12.5,8.25 L9.5,7.5 Z M3.5,14.5 L3.5,10.5 L6.5,9.5 L6.5,11 L5.5,14.5 L3.5,14.5 Z M6.5,1.5 L6.5,5.5 L3.5,4.5 L3.5,1.5 L6.5,1.5 Z M6.5,7.5 L3.5,6.75 L3.5,8.25 L6.5,7.5 Z" />
</svg>
