<svg xmlns="http://www.w3.org/2000/svg" width="16" height="16" viewBox="0 0 16 16">
	<g fill="none" fill-rule="evenodd">
		<path stroke="var(--vscode-ctp-red)" stroke-linejoin="round" d="M5.5,0.5 C2.73857625,0.5 0.5,2.73857625 0.5,5.5 C0.5,8.26142375 2.73857625,10.5 5.5,10.5 C7.91861593,10.5 9.93614102,8.78272598 10.3997853,6.50096792 L8.32916873,6.50035518 C7.91723205,7.66536202 6.8060861,8.5 5.5,8.5 C3.84314575,8.5 2.5,7.15685425 2.5,5.5 C2.5,3.84314575 3.84314575,2.5 5.5,2.5 C6.80503312,2.5 7.9154403,3.33329274 8.32817104,4.49682775 L10.3997853,4.49682775 C9.93546968,2.21670264 7.91821353,0.5 5.5,0.5 Z" />
		<path stroke="var(--vscode-ctp-red)" stroke-linecap="round" stroke-linejoin="round" d="M11.5.5 14.531 5.625 13.676 7" />
		<path stroke="var(--vscode-ctp-overlay1)" d="M14.9982047,11.5 C15.2742654,11.5 15.4980569,11.7237914 15.4980569,11.9998521 L15.4980569,14.9987961 C15.4980569,15.2748569 15.2742654,15.4986483 14.9982047,15.4986483 L9.99985214,15.4986483 C9.72379143,15.4986483 9.5,15.2748569 9.5,14.9987961 L9.5,11.9996833 C9.5,11.7236226 9.72379143,11.4998311 9.99985214,11.4998311 L14.9982047,11.5 Z M10.9995564,11.5 L10.9995564,10 C10.9995564,9.17157288 11.6711293,8.5 12.4995564,8.5 C13.3279836,8.5 13.9995564,9.17157288 13.9995564,10 L13.9995564,11.5" />
	</g>
</svg>
