<svg xmlns="http://www.w3.org/2000/svg" width="16" height="16" viewBox="0 0 16 16">
	<g fill="none" fill-rule="evenodd" stroke-linecap="round" stroke-linejoin="round">
		<path stroke="var(--vscode-ctp-overlay2)" d="M1.5,8 C1.5,10.3222263 2.73889296,12.468052 4.74999997,13.6291651 C6.76110699,14.7902783 9.23889301,14.7902783 11.25,13.6291651 C13.261107,12.468052 14.5,10.3222263 14.5,8 C14.5,5.67777369 13.2611071,3.53194806 11.25,2.37083488 C9.23889302,1.20972171 6.76110698,1.20972171 4.74999996,2.37083488 C2.73889294,3.53194806 1.5,5.67777369 1.5,8" />
		<path stroke="var(--vscode-ctp-overlay2)" d="M7.5,8 C7.5,8.27614237 7.72385763,8.5 8,8.5 C8.27614237,8.5 8.5,8.27614237 8.5,8 C8.5,7.72385763 8.27614237,7.5 8,7.5 C7.72385763,7.5 7.5,7.72385763 7.5,8" />
		<path stroke="var(--vscode-ctp-blue)" d="M8,4.5 C6.06700338,4.5 4.5,6.06700338 4.5,8" />
		<path stroke="var(--vscode-ctp-mauve)" d="M8,11.5 C9.93299662,11.5 11.5,9.93299662 11.5,8" />
	</g>
</svg>
