<svg xmlns="http://www.w3.org/2000/svg" width="16" height="16" viewBox="0 0 16 16">
	<g fill="var(--vscode-ctp-blue)" stroke="var(--vscode-ctp-blue)" stroke-linecap="round" stroke-miterlimit="100" stroke-width=".3">
		<path d="m5.86 3.6c-2.03-0.37-3.64 0.02-4.28 1.13-0.47 0.82-0.34 1.92 0.34 3.09q0.04 0.08 0.12 0.1 0.09 0.02 0.16-0.02 0.08-0.04 0.1-0.13 0.02-0.08-0.02-0.16c-0.61-1.05-0.73-2-0.34-2.68 0.54-0.92 1.97-1.26 3.84-0.92q0.09 0.01 0.16-0.04 0.07-0.05 0.08-0.13 0.02-0.08-0.03-0.15-0.05-0.07-0.13-0.09zm-2.89 5.64c0.82 0.91 1.89 1.75 3.11 2.45 2.94 1.7 6.08 2.16 7.62 1.1q0.07-0.05 0.09-0.13 0.02-0.09-0.03-0.16-0.05-0.07-0.13-0.09-0.09-0.01-0.16 0.04c-1.38 0.94-4.36 0.51-7.19-1.12-1.17-0.68-2.21-1.5-3-2.37q-0.06-0.06-0.14-0.06-0.09-0.01-0.15 0.05-0.07 0.06-0.07 0.14 0 0.09 0.05 0.15z" class="s0" />
		<path d="m13.21 8.99c1.33-1.57 1.79-3.15 1.15-4.26-0.47-0.81-1.46-1.24-2.78-1.26q-0.09 0-0.15 0.06-0.06 0.06-0.06 0.15 0 0.08 0.06 0.14 0.06 0.06 0.14 0.07c1.19 0.01 2.05 0.38 2.43 1.05 0.53 0.92 0.12 2.33-1.11 3.78q-0.06 0.06-0.05 0.15 0.01 0.09 0.07 0.14 0.07 0.06 0.16 0.05 0.08-0.01 0.14-0.07zm-3.42-5.32c-1.2 0.25-2.48 0.76-3.71 1.47-3.04 1.76-5.02 4.34-4.74 6.22q0.01 0.09 0.08 0.14 0.07 0.05 0.15 0.04 0.09-0.02 0.14-0.08 0.05-0.07 0.04-0.16c-0.25-1.67 1.63-4.12 4.54-5.8 1.19-0.69 2.43-1.18 3.59-1.43q0.08-0.01 0.13-0.09 0.05-0.07 0.03-0.16-0.02-0.08-0.09-0.13-0.08-0.04-0.16-0.02z" class="s0" />
		<path d="m4.87 12.66c0.69 1.94 1.83 3.13 3.11 3.13 0.93 0 1.8-0.63 2.47-1.75q0.04-0.08 0.02-0.16-0.02-0.08-0.09-0.13-0.08-0.04-0.16-0.02-0.08 0.02-0.13 0.09c-0.6 1.01-1.35 1.56-2.11 1.56-1.06 0-2.08-1.07-2.72-2.86q-0.03-0.08-0.11-0.12-0.07-0.04-0.16-0.01-0.08 0.03-0.12 0.11-0.03 0.08 0 0.16zm6.35-0.38c0.36-1.15 0.55-2.48 0.55-3.86 0-3.45-1.21-6.42-2.93-7.19q-0.08-0.03-0.16 0-0.08 0.04-0.11 0.11-0.04 0.08-0.01 0.16 0.03 0.08 0.11 0.11c1.53 0.69 2.68 3.51 2.68 6.81 0 1.34-0.18 2.62-0.53 3.73q-0.03 0.09 0.01 0.16 0.04 0.08 0.12 0.11 0.09 0.02 0.16-0.02 0.08-0.04 0.11-0.12zm3.92-0.21c0-0.55-0.45-1-1-0.99-0.55 0-1 0.44-1 0.99 0.01 0.55 0.45 1 1 1 0.55 0 1-0.45 1-1zm-0.42 0q0 0.24-0.17 0.41-0.17 0.17-0.41 0.17-0.24 0-0.41-0.17-0.17-0.17-0.17-0.41 0-0.24 0.17-0.41 0.17-0.17 0.41-0.17 0.24 0 0.41 0.17 0.17 0.17 0.17 0.41zm-12.92 1c0.55 0 1-0.44 1-0.99 0-0.55-0.45-1-1-1-0.55 0-0.99 0.45-0.99 1 0 0.55 0.44 0.99 0.99 0.99zm0-0.41q-0.24-0.01-0.41-0.17-0.16-0.17-0.17-0.41 0.01-0.24 0.17-0.41 0.17-0.17 0.41-0.17 0.24 0 0.41 0.17 0.17 0.17 0.17 0.41 0 0.24-0.17 0.41-0.17 0.16-0.41 0.17z" class="s0" />
		<path d="m7.98 2.25c0.55 0 0.99-0.44 0.99-0.99 0-0.56-0.44-1-0.99-1-0.55 0-1 0.44-1 1 0 0.55 0.45 0.99 1 0.99zm0-0.41q-0.24-0.01-0.41-0.18-0.17-0.17-0.17-0.4 0-0.24 0.17-0.41 0.17-0.17 0.41-0.17 0.24 0 0.41 0.17 0.16 0.17 0.17 0.41-0.01 0.23-0.17 0.4-0.17 0.17-0.41 0.18zm0.15 7.28c-0.39 0.09-0.77-0.16-0.86-0.55q-0.03-0.14 0-0.28 0.02-0.14 0.1-0.26 0.08-0.12 0.2-0.2 0.11-0.08 0.26-0.11c0.38-0.09 0.77 0.16 0.85 0.55 0.09 0.39-0.16 0.77-0.55 0.85z" class="s0" />
	</g>
</svg>
