<svg xmlns="http://www.w3.org/2000/svg" width="16" height="16" viewBox="0 0 16 16">
	<g fill="none" fill-rule="evenodd">
		<path stroke="var(--vscode-ctp-text)" stroke-linecap="round" stroke-linejoin="round" d="M1.87487972,8.0004811 L2.56063391,5.25746437 C2.67192566,4.81229737 3.07190876,4.5 3.53077641,4.5 L14.4692236,4.5 C15.0215083,4.5 15.4692236,4.94771525 15.4692236,5.5 C15.4692236,5.58176181 15.4591962,5.66321502 15.4393661,5.74253563 L15.1243253,7.00269892 M6.5,13.5 L2.00434875,13.5 C1.17157288,13.5 0.5,12.8284271 0.5,12 L0.5,3.5 C0.5,2.94771525 0.94771525,2.5 1.5,2.5 L6.5,2.5 C7.05228475,2.5 7.5,2.94771525 7.5,3.5 L7.5,4.5" />
		<path stroke="var(--vscode-ctp-blue)" stroke-linecap="round" stroke-linejoin="round" d="M12,15.5 L12,11.5 L8.5,9.25 M12,11.5 L15.5,9.25" />
		<path stroke="var(--vscode-ctp-blue)" d="M12 7.5 15.5 9.25 15.5 13.75 12 15.667 8.5 13.75 8.5 9.25z" />
	</g>
</svg>
