<svg xmlns="http://www.w3.org/2000/svg" width="16" height="16" viewBox="0 0 16 16">
	<g fill="none" fill-rule="evenodd">
		<path stroke="var(--vscode-ctp-text)" stroke-linecap="round" stroke-linejoin="round" d="M4.5,4.5 L12,4.5 C12.8284271,4.5 13.5,5.17157288 13.5,6 C13.5,6.43429905 13.5,6.26763238 13.5,6.5 M6.5,13.5 C5.38123915,13.5 4.21457248,13.5 2,13.5 C1.17157288,13.5 0.5,12.8284271 0.5,12 L0.5,3.5 C0.5,2.94771525 0.94771525,2.5 1.5,2.5 L6.5,2.5 C7.05228475,2.5 7.5,2.94771525 7.5,3.5 L7.5,4.5" />
		<path stroke="var(--vscode-ctp-peach)" d="M11.5,11 C11.5,10.1715729 10.8284271,9.5 10,9.5 C9.17157288,9.5 8.5,10.1715729 8.5,11 L8.5,11.5 L11.5,11.5 L11.5,11 Z" />
		<path stroke="var(--vscode-ctp-green)" d="M12,14.5 C12,13.6715729 11.3284271,13 10.5,13 C9.67157288,13 9,13.6715729 9,14.5 L9,15 L12,15 L12,14.5 Z" transform="rotate(-90 10.5 14)" />
		<path stroke="var(--vscode-ctp-blue)" d="M15.5,14 C15.5,13.1715729 14.8284271,12.5 14,12.5 C13.1715729,12.5 12.5,13.1715729 12.5,14 L12.5,14.5 L15.5,14.5 L15.5,14 Z" transform="rotate(-180 14 13.5)" />
		<path stroke="var(--vscode-ctp-red)" d="M15,10.5 C15,9.67157288 14.3284271,9 13.5,9 C12.6715729,9 12,9.67157288 12,10.5 L12,11 L15,11 L15,10.5 Z" transform="rotate(90 13.5 10)" />
	</g>
</svg>
