<svg xmlns="http://www.w3.org/2000/svg" width="16" height="16" viewBox="0 0 16 16">
	<g fill="none" fill-rule="evenodd">
		<path stroke="var(--vscode-ctp-text)" stroke-linecap="round" stroke-linejoin="round" d="M1.87487972,8.0004811 L2.56063391,5.25746437 C2.67192566,4.81229737 3.07190876,4.5 3.53077641,4.5 L14.4692236,4.5 C15.0215083,4.5 15.4692236,4.94771525 15.4692236,5.5 C15.4692236,5.58176181 15.4591962,5.66321502 15.4393661,5.74253563 L15.1243253,7.00269892 M6.5,13.5 L2.00434875,13.5 C1.17157288,13.5 0.5,12.8284271 0.5,12 L0.5,3.5 C0.5,2.94771525 0.94771525,2.5 1.5,2.5 L6.5,2.5 C7.05228475,2.5 7.5,2.94771525 7.5,3.5 L7.5,4.5" />
		<g stroke="var(--vscode-ctp-blue)">
			<path stroke-linecap="round" d="M8.726 12.929 9.976 13.175 10.101 13.667 11.101 13.667 11.351 13.175 12.601 13.175 12.851 13.667 13.851 13.667 13.976 13.175 15.226 12.929" />
			<path stroke-linecap="round" d="M8.64516129,13.875 C8.64516129,15 10.0597031,15.5 11.9975935,15.5 C13.9354839,15.5 15.3548387,15 15.3548387,13.875 L15.3548387,11.375 L16,10.75 L15.3548387,9.75 L14.5806452,10.375 L13.8064516,9.75 L14.0645161,9 L12.7741935,8.5 L12.3870968,9.25 L11.6129032,9.25 L11.2258065,8.5 L9.93548387,9 L10.1935484,9.75 L9.41935484,10.375 L8.64516129,9.75 L8,10.75 L8.64516129,11.375 L8.64516129,13.875 Z" />
			<path d="M13 11.5 14 11.5M10 11.5 11 11.5" />
		</g>
	</g>
</svg>
