<svg xmlns="http://www.w3.org/2000/svg" width="16" height="16" viewBox="0 0 16 16">
	<g fill="none" fill-rule="evenodd" stroke="var(--vscode-ctp-text)" stroke-linecap="round" stroke-linejoin="round">
		<path d="M1.87487972 8.0004811 2.56063391 5.25746437C2.67192566 4.81229737 3.07190876 4.5 3.53077641 4.5L14.4692236 4.5C15.0215083 4.5 15.4692236 4.94771525 15.4692236 5.5 15.4692236 5.58176181 15.4591962 5.66321502 15.4393661 5.74253563L15.1243253 7.00269892M6.5 13.5 2.00434875 13.5C1.17157288 13.5.5 12.8284271.5 12L.5 3.5C.5 2.94771525.94771525 2.5 1.5 2.5L6.5 2.5C7.05228475 2.5 7.5 2.94771525 7.5 3.5L7.5 4.5M13 7.5 15.5 9.25 15.5 12M14.75 14.25 11.5 15.5 8.25 14.25M7.5 12 7.502 9.063 10 7.5" />
		<path d="M8 9.25 11.5 11.362 11.5 15.5M15.5 9.25 11.5 11.5" />
	</g>
</svg>
