<svg xmlns="http://www.w3.org/2000/svg" width="16" height="16" viewBox="0 0 16 16">
	<g fill="none" fill-rule="evenodd" stroke="var(--vscode-ctp-text)" stroke-linecap="round" stroke-linejoin="round">
		<path d="M4.5 4.5 12 4.5C12.8284271 4.5 13.5 5.17157288 13.5 6 13.5 6.43429905 13.5 6.26763238 13.5 6.5M6.5 13.5C5.38123915 13.5 4.21457248 13.5 2 13.5 1.17157288 13.5.5 12.8284271.5 12L.5 3.5C.5 2.94771525.94771525 2.5 1.5 2.5L6.5 2.5C7.05228475 2.5 7.5 2.94771525 7.5 3.5L7.5 4.5M13 7.5 15.5 9.25 15.5 12M14.75 14.25 11.5 15.5 8.25 14.25M7.5 12 7.502 9.063 10 7.5" />
		<path d="M8 9.25 11.5 11.362 11.5 15.5M15.5 9.25 11.5 11.5" />
	</g>
</svg>
