<svg xmlns="http://www.w3.org/2000/svg" width="16" height="16" viewBox="0 0 16 16">
	<g fill="none" fill-rule="evenodd">
		<path stroke="var(--vscode-ctp-text)" stroke-linecap="round" stroke-linejoin="round" d="M1.87487972,8.0004811 L2.56063391,5.25746437 C2.67192566,4.81229737 3.07190876,4.5 3.53077641,4.5 L14.4692236,4.5 C15.0215083,4.5 15.4692236,4.94771525 15.4692236,5.5 C15.4692236,5.58176181 15.4591962,5.66321502 15.4393661,5.74253563 L15.1243253,7.00269892 M6.5,13.5 L2.00434875,13.5 C1.17157288,13.5 0.5,12.8284271 0.5,12 L0.5,3.5 C0.5,2.94771525 0.94771525,2.5 1.5,2.5 L6.5,2.5 C7.05228475,2.5 7.5,2.94771525 7.5,3.5 L7.5,4.5" />
		<path stroke="var(--vscode-ctp-peach)" d="M12.5567333,15.5 C14.1796359,15.5 15.495,14.4830508 15.495,12.7033898 C15.495,11.940678 15.0943273,10.6186441 14.4265394,9.53389831 C14.2929818,10.3474576 13.3580787,10.6186441 13.3580787,10.6186441 C13.6251939,9.26271186 12.967497,8.04237288 11.4983637,7.5 C11.6731905,8.51694915 11.3648061,9.53389831 10.429903,10.6186441 C9.88389248,11.2521671 9.495,11.8028814 9.495,12.7033898 C9.495,14.4830508 10.9338306,15.5 12.5567333,15.5 Z" />
		<circle cx="12.5" cy="13.5" r="1" stroke="var(--vscode-ctp-peach)" />
	</g>
</svg>
