<svg xmlns="http://www.w3.org/2000/svg" width="16" height="16" viewBox="0 0 16 16">
	<g fill="none" fill-rule="evenodd" stroke-linejoin="round">
		<path stroke="var(--vscode-ctp-text)" stroke-linecap="round" d="M4.5,4.5 L12,4.5 C12.8284271,4.5 13.5,5.17157288 13.5,6 C13.5,6.43429905 13.5,6.26763238 13.5,6.5 M6.5,13.5 C5.38123915,13.5 4.21457248,13.5 2,13.5 C1.17157288,13.5 0.5,12.8284271 0.5,12 L0.5,3.5 C0.5,2.94771525 0.94771525,2.5 1.5,2.5 L6.5,2.5 C7.05228475,2.5 7.5,2.94771525 7.5,3.5 L7.5,4.5" />
		<path stroke="var(--vscode-ctp-blue)" d="M12 12 8.5 15.5 7.5 14.5 11 11" />
		<path stroke="var(--vscode-ctp-text)" d="M9.318 9.439 15.682 9.439 15.682 11.561 9.318 11.561z" transform="rotate(45 12.5 10.5)" />
	</g>
</svg>
