<svg xmlns="http://www.w3.org/2000/svg" width="16" height="16" viewBox="0 0 16 16">
	<path fill="none" stroke="var(--vscode-ctp-green)" stroke-linejoin="round" d="M14.5,7.5 L14.5,8 C14.5,11.5898509 11.5898509,14.5 8,14.5 C4.41014913,14.5 1.5,11.5898509 1.5,8 C1.5,4.41014913 4.41014913,1.5 8,1.5 L8.5,1.5 L8.5,3.5 L8,3.5 C5.51471863,3.5 3.5,5.51471863 3.5,8 C3.5,10.4852814 5.51471863,12.5 8,12.5 C10.3159731,12.5 12.2233132,10.7504342 12.4724377,8.50088508 L11,8.5 L11,7.5 L14.5,7.5 Z M8,8.75 C8.41421356,8.75 8.75,8.41421356 8.75,8 C8.75,7.58578644 8.41421356,7.25 8,7.25 C7.58578644,7.25 7.25,7.58578644 7.25,8 C7.25,8.41421356 7.58578644,8.75 8,8.75 Z" />
</svg>
