<svg xmlns="http://www.w3.org/2000/svg" width="16" height="16" viewBox="0 0 16 16">
	<g fill="none" fill-rule="evenodd">
		<path stroke="var(--vscode-ctp-green)" d="M10.9823619,6.06814835 L9.98236191,6.06814835 C9.48236191,6.06814835 8.98236191,6.56814835 8.98236191,7.06814835 L8.98236191,10.5681483 C8.98236191,12.0681483 7.81236191,12.0681483 6.98236191,12.0681483 C7.81236191,12.0681483 8.98236191,12.0681483 8.98236191,13.5681483 L8.98236191,17.0681483 C8.98236191,17.5681483 9.48236191,18.0681483 9.98236191,18.0681483 L10.9823619,18.0681483" transform="rotate(-105 8.982 12.068)" />
		<path stroke="var(--vscode-ctp-text)" d="M8.5 10.5 7.335 6.153" />
		<path stroke="var(--vscode-ctp-text)" stroke-linejoin="round" d="M9,4.5 C9.27614237,4.5 9.5,4.27614237 9.5,4 C9.5,3.72385763 9.27614237,3.5 9,3.5 C8.72385763,3.5 8.5,3.72385763 8.5,4 C8.5,4.27614237 8.72385763,4.5 9,4.5 Z M5.5,4.5 L3.5,3.25 L5.5,3.5 L5.5,4.5 Z" />
	</g>
</svg>
