<svg xmlns="http://www.w3.org/2000/svg" width="16" height="16" viewBox="0 0 16 16">
	<path fill="none" stroke="var(--vscode-ctp-blue)" d="M8 9.5C8.82842712 9.5 9.5 8.82842712 9.5 8 9.5 7.17157288 8.82842712 6.5 8 6.5 7.17157288 6.5 6.5 7.17157288 6.5 8 6.5 8.82842712 7.17157288 9.5 8 9.5ZM8 13.5C11.0375661 13.5 13.5 11.0375661 13.5 8 13.5 4.96243388 11.0375661 2.5 8 2.5 4.96243388 2.5 2.5 4.96243388 2.5 8 2.5 11.0375661 4.96243388 13.5 8 13.5ZM8 6.5 8 0M8.65755672 9.34819107 11.5069692 15.1903524M7.34244328 9.34819107 4.49303083 15.1903524M6.5384449 8.33742658.205039482 9.79960843M9.4615551 8.33742658 15.7949605 9.79960843M9.16571894 7.05601941 14.2171677 2.96543687M6.83428106 7.05601941 1.78283231 2.96543687" />
</svg>
