<svg xmlns="http://www.w3.org/2000/svg" width="16" height="16" viewBox="0 0 16 16">
	<g fill="none">
		<path stroke="var(--vscode-ctp-peach)" d="M8,15.5 C11.0378333,15.5 13.5,13.625 13.5,10.34375 C13.5,8.9375 12.75,6.5 11.5,4.5 C11.25,6 9.5,6.5 9.5,6.5 C10,4 9,1.75 6.25,0.75 C6.57725,2.625 6,4.5 4.25,6.5 C3.22794911,7.66805816 2.5,8.6834375 2.5,10.34375 C2.5,13.625 4.96216667,15.5 8,15.5 Z" />
		<path stroke="var(--vscode-ctp-red)" d="M8,14.5 C6.61916667,14.5 5.5,13.5311808 5.5,12 C5.5,9.75 7.5,8.5 8.5,8.5 C8.35083333,9.375 8.75,9.75 9.5,10.5 C9.9884029,10.9884029 10.5,11.22475 10.5,12 C10.5,13.53125 9.38083333,14.5 8,14.5 Z" />
	</g>
</svg>
