<svg xmlns="http://www.w3.org/2000/svg" width="16" height="16" viewBox="0 0 16 16">
	<g fill="none" fill-rule="evenodd" stroke="var(--vscode-ctp-peach)">
		<path d="M1.989 9.5 4 9.5M12 9.5 14 9.5" />
		<path stroke-linecap="square" d="M9.5,14.5197725 L9.5,8 C9.5,7.17157288 8.82842712,6.5 8,6.5 C7.17157288,6.5 6.5,7.17157288 6.5,8 L6.5,14.5197725" />
		<path stroke-linecap="square" d="M11.5,14.5197725 L11.5,8 C11.5,6.06700338 9.93299662,4.5 8,4.5 C6.06700338,4.5 4.5,6.06700338 4.5,8 L4.5,14.5197725" />
		<path stroke-linecap="square" stroke-linejoin="round" d="M12.5,14.5 L14.5,14.5 L14.5,8.5 C14.5,5.80051551 12.8544007,3.48538134 10.511632,2.50302745 M5.48963736,2.50249536 C3.14619375,3.48454515 1.5,5.800028 1.5,8.5 L1.5,14.5 L3.53257972,14.5197725" />
		<path stroke-linecap="round" stroke-linejoin="round" d="M5.5 1.5 10.5 1.5 9.017 4.5 7 4.5z" />
	</g>
</svg>
