<svg xmlns="http://www.w3.org/2000/svg" width="16" height="16" viewBox="0 0 16 16">
	<g fill="none" fill-rule="evenodd" stroke-linejoin="round">
		<path stroke="var(--vscode-ctp-text)" stroke-linecap="square" d="M3.5,10.5 L3.5,14.5 L4.5,15.5 L11.5,15.5 L12.5,14.5 L12.5,10.5 M7,15.5 L7.5,14.5 L8.5,14.5 L9,15.5 M5.25,13.75 L6.5,12.5 L9.5,12.5 L10.75,13.75 M3.5,6.5 L12.5,6.5 L13.5,7.5 L13.5,9.5 L12.5,10.5 L3.5,10.5 L2.5,9.5 L2.5,7.5 L3.5,6.5 Z M12.5,6.5 C12.5,6.5 12.5,6.33333333 12.5,6 C12.5,3.51471863 10.4852814,1.5 8,1.5 C5.51471863,1.5 3.5,3.51471863 3.5,6 C3.5,6.33333333 3.5,6.5 3.5,6.5" />
		<path stroke="var(--vscode-ctp-red)" stroke-linecap="round" d="M4.5 8.5 11.5 8.5" />
	</g>
</svg>
