<svg xmlns="http://www.w3.org/2000/svg" width="16" height="16" viewBox="0 0 16 16">
	<g fill="none" fill-rule="evenodd" stroke="var(--vscode-ctp-peach)">
		<path stroke-linecap="round" stroke-linejoin="round" d="M2.5,3.12512056 C2.5,2.35895096 3.35895096,1.5 4.12492767,1.5 L13.8750723,1.5 C14.6408561,1.5 15.5,2.35895096 15.5,3.12512056 L15.5,12.8750723 C15.5,13.641049 14.641049,14.5 13.8750723,14.5 L4.12859263,14.5 C3.36165146,14.5 2.5,13.6418206 2.5,12.8750723" />
		<path d="M7.5,5.80901699 L11.881966,8 L7.5,10.190983 L7.5,5.80901699 Z" />
		<path stroke-linecap="square" d="M.5 5.5.5 10.5" />
		<path d="M0.5,8.5 L2,8.5 C2.82842712,8.5 3.5,7.82842712 3.5,7 C3.5,6.17157288 2.82842712,5.5 2,5.5 L0.5,5.5" />
	</g>
</svg>
