<svg xmlns="http://www.w3.org/2000/svg" width="16" height="16" viewBox="0 0 16 16">
	<g fill="none" fill-rule="evenodd">
		<path stroke="var(--vscode-ctp-text)" d="M11.4995786,3.81066606 C11.846209,3.86959297 12.5265576,4.02126872 13.5406244,4.26569331 C14.1034425,4.39974893 14.5002559,4.90288264 14.5000105,5.48144531 L14.5000105,13.5380859 C14.5016576,14.1120717 14.1121984,14.6134238 13.5556661,14.7539022 C11.5794278,15.2513007 9.72753906,15.5 7.99998949,15.5 C6.27246094,15.5 4.42057224,15.2513007 2.44433391,14.7539022 C1.88780162,14.6134238 1.49834237,14.1120717 1.49998949,13.5380859 L1.49998949,5.45214844 C1.50217526,4.88699846 1.88327202,4.39360414 2.42978222,4.24963634 C3.46179145,3.97590501 4.15186404,3.80935957 4.49998949,3.75" />
		<circle cx="8" cy="4" r="3.5" stroke="var(--vscode-ctp-peach)" />
		<path stroke="var(--vscode-ctp-peach)" d="M8 4 8 6" />
		<path stroke="var(--vscode-ctp-overlay1)" stroke-linecap="round" d="M3.5,10.5 L4.5,12.5 M5.5,10.5 L6.5,12.5 M10.5,10.5 L9.5,12.5 M12.5,10.5 L11.5,12.5" />
	</g>
</svg>
