<svg version="1.2" xmlns="http://www.w3.org/2000/svg" viewBox="0 0 512 512" width="512" height="512">
	<title>iconsvg-svg</title>
	<style>
		.s0 { fill: #9f70a9 } 
		.s1 { fill: #7970a9 } 
		.s2 { fill: #708ca9 } 
		.s3 { fill: #70a99f } 
		.s4 { fill: #a99f70 } 
		.s5 { fill: #a97079 } 
		.s6 { fill: #393a59 } 
		.s7 { fill: #282942 } 
		.s8 { fill: #d863bb } 
		.s9 { fill: #cccccc } 
		.s10 { fill: #ededed } 
		.s11 { fill: #7f7d89 } 
		.s12 { fill: #e87bc2 } 
		.s13 { fill: #f0f0f0 } 
	</style>
	<g id="Layer 1">
		<path fill-rule="evenodd" class="s0" d="m510.6 243.5q0.3 6.2 0.3 12.4c0 100.3-57.6 187.2-141.2 229.1l-98.5-2z"/>
		<path fill-rule="evenodd" class="s1" d="m486.6 146.8c13.9 29.5 22.4 62.3 24 96.7l-239.4 239.5-118.5-2.5z"/>
		<path fill-rule="evenodd" class="s2" d="m436.8 75.6c20.3 20.6 37.3 44.6 49.8 71.2l-333.9 333.7-19.5-0.4v0.1c-21.2-11.7-40.6-26.4-57.5-43.5z"/>
		<path fill-rule="evenodd" class="s3" d="m366.3 25.2c26.3 12.7 50.1 29.9 70.5 50.4l-361.1 361.1c-20.4-20.5-37.4-44.4-50-70.9z"/>
		<path fill-rule="evenodd" class="s4" d="m270.2 0.4c34.3 1.9 66.8 10.7 96.1 24.8l-340.6 340.6c-13.9-29.6-22.5-62.2-24.3-96.6z"/>
		<path fill-rule="evenodd" class="s5" d="m1.4 269.2q-0.3-6.6-0.3-13.3c0-141.2 114.2-255.9 254.9-255.9q7.2 0 14.2 0.4z"/>
		<g>
			<path class="s6" d="m186.2 233.6c-12 2.2-22.5 10.7-26.6 23-1.5 4.6-2.1 9.2-1.7 13.7q0.2 2.4 0.7 4.8-0.8-0.1-1.6-0.1-0.7-0.1-1.4-0.1c-11.6-0.3-22.8 4.2-30.8 12.3-2.7 2.7-5.1 5.7-7 9.1-1.3 2.3-2.4 4.7-3.2 7.3-3.9 11.6-2.5 23.6 2.9 33.5l-0.5 0.2c-4.7-10.2-13.4-18.6-24.9-22.5-18.5-6.2-38.2 1.1-48.5 16.5q-0.4 0.7-0.8 1.4c-4-4.7-9.2-8.3-15.3-10.4-6.4-2.1-13-2.3-19.1-0.9q-1.8-7.1-3.3-14.3l20.3-37.7 7.7 7.7c9.4 9.6 23.9 12.1 36 6.1l-10.1-20.2 6.2 1.4c10.4 2.4 21-2.9 25.4-12.6l2.6-5.8 10 20.2c9-4.4 15-12.7 16.8-22.2 0.6-3.3 0.7-6.7 0.2-10.2l-1.6-10.8 4.8 0.8z"/>
			<path class="s6" d="m472.9 320.3c-0.6 2.7-4.4 3.2-5.6 0.6-3.6-7.6-9.9-13.9-18.2-17.4-4.4-1.8-9-2.7-13.5-2.6q-2.5 0-4.8 0.4 0.1-0.8 0.2-1.6 0.1-0.7 0.2-1.4c1-11.5-2.7-23-10.2-31.6-2.5-2.9-5.4-5.4-8.6-7.5q-3.3-2.2-7.1-3.8c-11.2-4.6-23.3-4-33.6 0.6l-0.2-0.4c10.6-4 19.5-12.1 24.2-23.4 7.4-18 1.5-38.1-13.2-49.4q-0.6-0.5-1.3-1c4.9-3.6 8.9-8.6 11.4-14.6 3.4-8.3 3.4-17.2 0.5-25.1-1-2.7 2-5 4.4-3.5l44.6 28c1.7 1.1 1.9 3.5 0.4 4.8l-5.2 4.5c-9.4 8-13 20.7-9.6 32.4 0.5 1.7 2.4 2.6 4 1.9l12.1-5c2.3-1 4.7 1.2 4 3.6-3.1 10.2 1.5 21.2 10.9 26.2 2.2 1.2 2 4.5-0.3 5.5l-12.1 5c-1.6 0.6-2.3 2.6-1.4 4.2 4.1 7.6 11.3 13.1 19.5 15.2 3.2 0.8 6.7 1.1 10.1 0.9l6.9-0.6c2-0.1 3.6 1.7 3.1 3.7l-0.1 0.7z"/>
			<path class="s6" d="m211.2 32.5c2.6 1.2 2.3 5-0.5 5.7-8.1 2-15.5 6.9-20.5 14.5-2.6 4-4.4 8.3-5.2 12.7q-0.4 2.4-0.5 4.8-0.8-0.3-1.6-0.5-0.6-0.2-1.3-0.4c-11.1-3.3-23-1.8-32.9 3.9-3.3 1.9-6.4 4.2-9.1 7q-2.7 2.8-5 6.2c-6.7 10.2-8.5 22.1-5.9 33.1l-0.5 0.1c-1.8-11.1-8.1-21.5-18.2-28.2-16.2-10.7-37.2-8.8-51.1 3.4q-0.6 0.6-1.2 1.1c-2.6-5.5-6.7-10.3-12.1-13.9-7.5-5-16.3-6.7-24.5-5.4-2.9 0.5-4.6-2.9-2.7-5l36.1-38.4c1.4-1.4 3.8-1.1 4.8 0.6l3.4 6c6.1 10.7 17.8 16.7 29.9 15.6 1.8-0.2 3-1.8 2.7-3.6l-2.6-12.8c-0.5-2.5 2.1-4.4 4.3-3.2 9.5 4.9 21.1 2.6 27.8-5.7 1.6-1.9 4.8-1.1 5.3 1.3l2.6 12.8c0.3 1.8 2.2 2.8 3.9 2.3 8.2-2.6 14.9-8.6 18.6-16.2 1.5-3.1 2.4-6.4 2.8-9.8l0.8-6.9c0.3-2 2.4-3.2 4.2-2.4l0.7 0.4z"/>
		</g>
		<path fill-rule="evenodd" class="s7" d="m432.6 440.4c-16.1 15.5-33.9 29.3-53.6 40.2-36.5 20-78.4 31.4-123 31.4-44.6 0-86.5-11.4-123-31.4-19.7-10.8-37.7-24.9-53.8-40.4 16.4-41.5 56-70.6 103-72.3q2 0 4.1 0h139.3q2.1 0 4.2 0c47 1.7 86.4 31 102.8 72.5z"/>
		<path class="s8" d="m256 448.6c0 0 177.3-128.7 170.9-140.3-9.5-17.3-23.6-29.1-37.6-37.1-23.4-13.4-46.4-16.2-46.4-16.2l-141.1 119.8z"/>
		<path class="s7" d="m256 448.6c0 0 177.3-128.7 170.9-140.3-9.5-17.3-23.6-29.1-37.6-37.1 14.3 15.8 28 39.8 6.9 60.9-3.4 3.4-7.2 5.7-11.1 7.1-14 4.8-27 12.1-37.6 22.3z"/>
		<path class="s8" d="m256 448.6c0 0-177.3-128.7-170.9-140.3 9.5-17.3 23.6-29.1 37.6-37.1 23.4-13.4 46.4-16.2 46.4-16.2z"/>
		<g>
			<path class="s9" d="m402.7 149.7l-48.9 28.8v58.6c0 13.5 11 24.4 24.4 24.4 13.5 0 24.5-10.9 24.5-24.4z"/>
			<path class="s9" d="m109.3 149.7l48.9 28.8v58.6c0 13.5-11 24.4-24.5 24.4-13.4 0-24.4-10.9-24.4-24.4z"/>
			<path class="s9" d="m310.2 308.2v58.3c0 29.9-24.3 54.2-54.2 54.2-30 0-54.2-24.3-54.2-54.2v-58.3z"/>
		</g>
		<path class="s10" d="m376.7 145.1v102.3c0 33.4-13.5 63.6-35.3 85.4-21.9 21.9-52.1 35.4-85.4 35.4-66.7 0-120.7-54.1-120.7-120.8v-102.3q0-8.3 1-16.3c2.3-16.5 7.8-32 16-45.7 21.1-35.2 186.3-35.2 207.3 0 8.3 13.7 13.8 29.2 16 45.7q1.1 8 1.1 16.3z"/>
		<path class="s9" d="m170.2 247.4v-102.3c0-60.8 44.9-111 103.3-119.5-5.7-0.8-11.6-1.3-17.5-1.3-66.7 0-120.8 54.1-120.8 120.8v102.3c0 66.7 54.1 120.8 120.8 120.8 5.9 0 11.8-0.5 17.5-1.3-58.4-8.5-103.3-58.7-103.3-119.5z"/>
		<g>
			<path class="s6" d="m316.1 223.7v-23.2c0-6-4.9-10.9-10.9-10.9-6.1 0-11 4.9-11 10.9v23.2c0 6 4.9 10.9 11 10.9 6 0 10.9-4.9 10.9-10.9z"/>
			<path class="s6" d="m195.9 200.5v23.2c0 6 4.9 10.9 10.9 10.9 6.1 0 10.9-4.9 10.9-10.9v-23.2c0-6-4.8-10.9-10.9-10.9-6 0-10.9 4.9-10.9 10.9z"/>
		</g>
		<g>
			<path class="s11" d="m309 211.7c-4 0-7.2-3.2-7.2-7.1 0-4 3.2-7.2 7.2-7.2 3.9 0 7.1 3.2 7.1 7.2 0 3.9-3.2 7.1-7.1 7.1z"/>
			<path class="s11" d="m210.6 211.7c-3.9 0-7.1-3.2-7.1-7.1 0-4 3.2-7.2 7.1-7.2 4 0 7.2 3.2 7.2 7.2 0 3.9-3.2 7.1-7.2 7.1z"/>
			<path class="s11" d="m301 225.6c-2.3 0-4.1-1.8-4.1-4.1 0-2.2 1.8-4.1 4.1-4.1 2.2 0 4.1 1.9 4.1 4.1 0 2.3-1.9 4.1-4.1 4.1z"/>
			<path class="s11" d="m202.6 225.6c-2.2 0-4.1-1.8-4.1-4.1 0-2.2 1.9-4.1 4.1-4.1 2.3 0 4.1 1.9 4.1 4.1 0 2.3-1.8 4.1-4.1 4.1z"/>
		</g>
		<g>
			<path class="s7" d="m161.9 128.8q0 1.9 0.2 3.8c1.2 14.7-4.2 29.3-15.4 39-3.5 3.1-7.3 5.7-11.4 7.9v-34.4c0-22.7 6.2-43.9 17-62 6.6 7.3 11.4 16.2 14 26-2.8 6-4.4 12.7-4.4 19.7z"/>
			<path class="s7" d="m376.7 145.1v34.4c-4.1-2.2-7.9-4.8-11.4-7.9-11.2-9.7-16.6-24.3-15.4-39q0.1-1.9 0.1-3.8c0-7-1.5-13.7-4.3-19.7 2.5-9.8 7.4-18.7 13.9-26 10.9 18.1 17.1 39.3 17.1 62z"/>
		</g>
		<g>
			<path class="s10" d="m223.1 211l-44.2-17.1 9.8-25.4 44.2 17.1z"/>
			<path class="s10" d="m279.1 185.6l44.2-17.1 9.8 25.4-44.2 17.1z"/>
		</g>
		<path class="s6" d="m313.1 257.7c0 19.5-9.8 36.7-24.7 47-9.2 6.4-20.4 10.1-32.4 10.1-12.1 0-23.2-3.7-32.4-10.1-15-10.3-24.7-27.5-24.7-47q7.9 3.9 16.2 6.7 8.7 3 17.6 4.6c7.7 1.5 15.5 2.2 23.3 2.2 7.8 0 15.6-0.7 23.2-2.2q9-1.6 17.7-4.6 8.3-2.8 16.2-6.7z"/>
		<path class="s12" d="m288.4 304.7c-9.2 6.4-20.4 10.1-32.4 10.1-12.1 0-23.2-3.7-32.4-10.1 9.2-6.4 20.3-10.1 32.4-10.1 12 0 23.2 3.7 32.4 10.1z"/>
		<path class="s9" d="m323.3 169.9h-134.6l37.7 28.3h4.2c7.3 0 13.2 5.9 13.2 13.2v20.4c0 6.8 5.2 12.5 12 12.7 6.8 0.1 12.4-5.4 12.4-12.3v-20.8c0-7.3 5.9-13.2 13.2-13.2h4.1z"/>
		<g>
			<path class="s13" d="m296.9 264.4c-0.7 4.9-1.7 9.4-2.9 13.4-2.7 8.9-6 15.1-6 15.1l-5.6-15.2-3.2-8.7q9-1.6 17.7-4.6z"/>
			<path class="s13" d="m232.7 269l-3.1 8.7-5.7 15.2c0 0-3.2-6.2-5.9-15.1-1.2-4-2.3-8.5-2.9-13.4q8.7 3 17.6 4.6z"/>
		</g>
		<g>
			<path class="s6" d="m169.6 177.7l10.4-16c1.8-2.9 5.6-3.7 8.5-1.9l42.3 27.2c5.7 3.7 2.1 12.6-4.6 11.2l-52.7-11.1c-4.2-0.9-6.2-5.7-3.9-9.4z"/>
			<path class="s6" d="m342.4 177.7l-10.4-16c-1.8-2.9-5.6-3.7-8.5-1.9l-42.3 27.2c-5.8 3.7-2.1 12.6 4.6 11.2l52.6-11.1c4.3-0.9 6.3-5.7 4-9.4z"/>
		</g>
		<path class="s9" d="m269.2 335.7h-26.4c-2.7 0-4.9-2.2-4.9-4.9 0-2.7 2.2-4.9 4.9-4.9h26.4c2.7 0 4.9 2.2 4.9 4.9 0 2.7-2.2 4.9-4.9 4.9z"/>
		<g>
			<path class="s7" d="m359.6 83.1c-21-35.2-59.6-58.8-103.6-58.8-44.1 0-82.6 23.6-103.7 58.8-8.2 13.7-13.7 29.2-16 45.7h25.6c0-26 21.1-47 47.1-47q0.9 0 1.9 0c22 0.9 39.2 19.6 39.2 41.6v6.5c0 3.2 2.6 5.9 5.9 5.9 3.3 0 5.9-2.7 5.9-5.9v-6.5c0-22 17.2-40.7 39.2-41.6q1 0 1.9 0c26 0 47 21 47 47h25.6c-2.2-16.5-7.7-32-16-45.7z"/>
			<path class="s7" d="m256 448.6c0 0-177.3-128.7-170.9-140.3 9.5-17.3 23.6-29.1 37.6-37.1-14.3 15.8-28 39.8-6.9 60.9 3.4 3.4 7.1 5.7 11.1 7.1 14 4.8 26.9 12.1 37.6 22.3z"/>
		</g>
		<g id="Forma 1">
			<path class="s12" d="m298.4 441.1l-39.5 14.7c-1.9 0.6-3.9 0.6-5.8 0l-39.5-14.7c-5.5-2-11.2 2-11.2 7.8v24.4c0 5.8 5.7 9.8 11.2 7.8l39.5-14.7c1.9-0.7 3.9-0.7 5.8 0l39.5 14.7c5.5 2 11.2-2 11.2-7.8v-24.4c0-5.8-5.7-9.8-11.2-7.8z"/>
			<path class="s12" d="m294 277.8c-2.7 8.9-6 15.1-6 15.1l-5.6-15.2c1.8-0.7 3.7-1 5.6-1 2.1 0 4.1 0.4 6 1.1z"/>
			<path class="s12" d="m229.6 277.7l-5.7 15.2c0 0-3.2-6.2-5.9-15.1 1.9-0.7 3.9-1.1 5.9-1.1 2 0 3.9 0.3 5.7 1z"/>
		</g>
	</g>
</svg>